<svg xmlns="http://www.w3.org/2000/svg" xmlns:xlink="http://www.w3.org/1999/xlink" width="60" height="60" viewBox="0 0 60 60">
  <defs>
    <clipPath id="clip-Монтажная_область_1">
      <rect width="60" height="60"/>
    </clipPath>
  </defs>
  <g id="Монтажная_область_1" data-name="Монтажная область – 1" clip-path="url(#clip-Монтажная_область_1)">
    <rect width="60" height="60" fill="#fff"/>
    <path id="Контур_1" data-name="Контур 1" d="M48.833,38.146c-1.73,4.94-6.906,13.686-12.239,13.781-3.538.067-4.675-2.062-8.718-2.062s-5.307,2-8.651,2.132c-5.659.214-14.392-12.625-14.392-23.821,0-10.285,7.277-15.382,13.636-15.475,3.41-.061,6.631,2.264,8.71,2.264s6-2.794,10.111-2.386a12.389,12.389,0,0,1,9.656,5.15C38.716,23.015,40,34.08,48.833,38.146ZM37.345,0C31.127.247,26.056,6.671,26.763,11.984,32.509,12.423,38.022,6.079,37.345,0Z" transform="translate(3.167 2)" fill="#606161"/>
  </g>
</svg>
