<svg xmlns="http://www.w3.org/2000/svg" xmlns:xlink="http://www.w3.org/1999/xlink" width="60" height="60" viewBox="0 0 60 60"><defs><clipPath id="b"><rect width="60" height="60"/></clipPath></defs><g id="a" clip-path="url(#b)"><rect width="60" height="60" fill="#fff"/><path d="M15.043,2A13.082,13.082,0,0,0,2,15.043V38.957A13.082,13.082,0,0,0,15.043,52H38.957A13.082,13.082,0,0,0,52,38.957V15.043A13.082,13.082,0,0,0,38.957,2ZM12.428,19.391a1.262,1.262,0,0,1,1.325,1.291,1.289,1.289,0,0,1-1.325,1.325,1.262,1.262,0,0,1-1.291-1.325A1.234,1.234,0,0,1,12.428,19.391Zm11.311.645c4.022,0,6.42,2.819,6.42,7.167,0,4.565-2.4,7.3-6.42,7.3s-6.42-2.847-6.42-7.3S19.826,20.037,23.739,20.037Zm14.13.1c2.826,0,4.885,1.658,4.993,3.94H40.791c-.217-1.3-1.291-2.072-2.921-2.072-1.739,0-2.819.768-2.819,2.072,0,.978.74,1.5,2.48,1.936l1.529.34c2.826.652,4.042,1.841,4.042,3.906-.109,2.609-2.065,4.246-5.435,4.246-3.043,0-5.122-1.651-5.231-4.042h2.174c.217,1.3,1.413,2.174,3.261,2.174,1.739,0,2.921-.842,2.921-2.038,0-1.087-.734-1.637-2.582-2.072l-1.766-.442c-2.5-.543-3.567-1.739-3.567-3.8C32.876,21.783,34.826,20.139,37.87,20.139Zm-14.13,1.97c-2.609,0-4.246,2.079-4.246,5.231s1.637,5.2,4.246,5.2,4.246-2.045,4.246-5.2C27.985,24.079,26.348,22.109,23.739,22.109Zm-12.3,1.63h2.072V34.167H11.443Z" transform="translate(3 3)" fill="#606161"/></g></svg>