<svg xmlns="http://www.w3.org/2000/svg" width="60" height="48" viewBox="0 0 60 48">
  <g id="Слой_x0020_1" transform="translate(-3896 -2009)">
    <path id="Контур_1" data-name="Контур 1" d="M3917.964,2047.09a16.963,16.963,0,0,0,3.4-1.151l.2-.1,4.426,8.342,4.444-8.342.2.1a16.4,16.4,0,0,0,6.984,1.535,12.828,12.828,0,0,0,3.821-.5,19.952,19.952,0,0,0,3.181-1.418,9.88,9.88,0,0,0,1.515-1,10.645,10.645,0,0,0,1.515-1.5l.354.283c-.186.234-.354.484-.539.717-1.75,2.353-2.659,3.554-5.385,4.672l5.4,6.657h0l.168.166a4.953,4.953,0,0,0,1.6,1.068,4.674,4.674,0,0,0,1.868.384,4.868,4.868,0,0,0,3.45-1.418,4.783,4.783,0,0,0,1.431-3.4,4.31,4.31,0,0,0-.1-.934,5.12,5.12,0,0,0-.269-.9l-.051-.1.017-.033-2.457-13.647.017-.067a15.335,15.335,0,0,0,.673-2.619,16.286,16.286,0,0,0-.555-7.775,14.246,14.246,0,0,0-2.356-4.371l-.084-.1.05-.117a45.373,45.373,0,0,0,1.952-5.939,21.113,21.113,0,0,0,.489-6.323,21.471,21.471,0,0,1-6.312,3.988,23.159,23.159,0,0,1-7.3,1.435h-.034l-.033-.017a44.087,44.087,0,0,0-6.547-1.452,50.658,50.658,0,0,0-14.2,0,43.888,43.888,0,0,0-6.531,1.452l-.033.017h-.051a21.493,21.493,0,0,1-7.3-1.552,23.226,23.226,0,0,1-6.329-4.121,21.485,21.485,0,0,0,.5,6.44,43.439,43.439,0,0,0,1.969,6.073l.051.117-.084.1a14.241,14.241,0,0,0-2.356,4.371,16.352,16.352,0,0,0-.556,7.792,16.444,16.444,0,0,0,.656,2.6l.034.067-2.474,13.7v.033l-.017.05a5.141,5.141,0,0,0-.269.9,4.325,4.325,0,0,0-.1.934,4.863,4.863,0,0,0,4.864,4.822,4.908,4.908,0,0,0,3.467-1.452l.135-.133h.017l5.436-6.69c-2.726-1.118-3.636-2.319-5.386-4.672-.185-.234-.37-.484-.538-.717l.354-.283a10.269,10.269,0,0,0,3.012,2.5,22.543,22.543,0,0,0,3.2,1.418,12.829,12.829,0,0,0,3.821.5A16.982,16.982,0,0,0,3917.964,2047.09Zm19.893-23.458a7.8,7.8,0,1,0,7.877,7.808,7.716,7.716,0,0,0-2.306-5.522A7.882,7.882,0,0,0,3937.857,2023.632Zm.134,8.876a1.62,1.62,0,0,1,1.145.467,1.528,1.528,0,0,1,.471,1.135,1.583,1.583,0,0,1-.471,1.134h0a1.621,1.621,0,0,1-1.145.467,1.681,1.681,0,0,1-1.144-.467,1.651,1.651,0,0,1-.471-1.134,1.591,1.591,0,0,1,.471-1.135A1.68,1.68,0,0,1,3937.991,2032.508Zm2.71-2.636a1.627,1.627,0,0,1,1.145.484,1.593,1.593,0,0,1,.471,1.135,1.654,1.654,0,0,1-.471,1.135h-.017a1.624,1.624,0,0,1-2.76-1.135,1.54,1.54,0,0,1,.488-1.135h0A1.568,1.568,0,0,1,3940.7,2029.872Zm-2.71-2.553a1.555,1.555,0,0,1,1.145.467,1.581,1.581,0,0,1,0,2.253,1.554,1.554,0,0,1-1.145.467,1.608,1.608,0,0,1-1.144-.467,1.582,1.582,0,0,1,0-2.253h0A1.609,1.609,0,0,1,3937.991,2027.319Zm-2.709,2.62a1.631,1.631,0,0,1,1.632,1.6,1.6,1.6,0,0,1-.488,1.134h0a1.62,1.62,0,0,1-1.144.467,1.684,1.684,0,0,1-1.145-.467,1.656,1.656,0,0,1-.471-1.134,1.6,1.6,0,0,1,.471-1.135h0A1.611,1.611,0,0,1,3935.282,2029.939Zm-15.6-4.021a7.932,7.932,0,0,0-11.142,0,7.766,7.766,0,0,0,0,11.045,7.932,7.932,0,0,0,11.142,0,7.727,7.727,0,0,0,0-11.045Zm-9.644,6.99v-2.97h2.525v-2.5h3.249v2.5h2.525v3.2h-2.525v2.5h-3.249v-2.5h-2.525Zm4.713-13.1a13.524,13.524,0,0,1,6.732,1.769,12.155,12.155,0,0,1,4.511,4.421,12.327,12.327,0,0,1,4.528-4.421,13.526,13.526,0,0,1,6.732-1.769,13.336,13.336,0,0,1,9,3.4,10.922,10.922,0,0,1,0,16.45,13.336,13.336,0,0,1-9,3.4,13.64,13.64,0,0,1-6.749-1.769,12.409,12.409,0,0,1-4.51-4.421,12.155,12.155,0,0,1-4.511,4.421,13.525,13.525,0,0,1-6.732,1.769,13.336,13.336,0,0,1-9-3.4,10.922,10.922,0,0,1,0-16.45A13.336,13.336,0,0,1,3914.749,2019.811Z" transform="translate(0 0)" fill="#5e6a8e" fill-rule="evenodd"/>
  </g>
</svg>
