<svg xmlns="http://www.w3.org/2000/svg" xmlns:xlink="http://www.w3.org/1999/xlink" width="60" height="60" viewBox="0 0 60 60"><defs><clipPath id="b"><rect width="60" height="60"/></clipPath></defs><g id="a" clip-path="url(#b)"><rect width="60" height="60" fill="#fff"/><g transform="translate(-453 -324.335)"><path d="M26.809,0V31.679l7.168,2.277V7.383c0-1.227.552-2.074,1.448-1.786,1.172.325,1.4,1.473,1.4,2.713V18.92c4.468,2.16,7.978,0,7.978-5.7.006-5.842-2.05-8.432-8.1-10.5A87.3,87.3,0,0,0,26.809,0Z" transform="translate(450.644 328.335)" fill="#606161"/><path d="M40.7,42.52,52.23,38.408c1.307-.466,1.51-1.135.448-1.479a7.819,7.819,0,0,0-4.3.221L40.7,39.85v-4.3l.442-.147a26.542,26.542,0,0,1,5.345-1.141,22.909,22.909,0,0,1,9.942,1.184c3.381,1.074,3.762,2.645,2.9,3.731a8.071,8.071,0,0,1-2.964,1.841L40.7,46.668Z" transform="translate(445.278 315.144)" fill="#606161"/><path d="M3.3,40.924C-.173,39.948-.75,37.917.846,36.738a17.183,17.183,0,0,1,3.952-1.9L15.078,31.16v4.161L7.713,37.972c-1.307.466-1.5,1.129-.448,1.479a7.812,7.812,0,0,0,4.3-.221l3.547-1.289V41.7l-.706.11a23.21,23.21,0,0,1-11.046-.89" transform="translate(461 316.298)" fill="#606161"/><path d="M64.891,51.442a1.393,1.393,0,1,1,.411.988A1.387,1.387,0,0,1,64.891,51.442Zm1.4,1.682a1.679,1.679,0,0,0,1.184-2.866,1.663,1.663,0,0,0-1.184-.5,1.682,1.682,0,0,0,0,3.363" transform="translate(436.041 309.112)" fill="#606161"/><path d="M67.351,51.484a.245.245,0,0,1-.086.215.454.454,0,0,1-.245.061H66.5v-.5h.552a.381.381,0,0,1,.2,0A.227.227,0,0,1,67.351,51.484Zm.368,1.227a.2.2,0,0,1-.055-.08.741.741,0,0,1,0-.141v-.239A.442.442,0,0,0,67.6,52a.417.417,0,0,0-.11-.092.424.424,0,0,0,.141-.135.515.515,0,0,0,.074-.288.454.454,0,0,0-.276-.454.773.773,0,0,0-.356-.061h-.89V52.81H66.5v-.767h.509a.558.558,0,0,1,.2,0,.215.215,0,0,1,.1.2v.442a.222.222,0,0,0,0,.068h.362v-.11" transform="translate(435.435 308.646)" fill="#606161"/></g><g transform="translate(-562.875 -228.1)"><path d="M347.355,39.059a3.36,3.36,0,0,0-3.728,3.529v5.536a2.18,2.18,0,0,1-2.073,2.33h-6.476a.093.093,0,0,0-.093.092v1.22a.093.093,0,0,0,.093.092h7.635c2.505,0,3.732-1.321,3.732-3.307V42.588a2.065,2.065,0,0,1,2.147-2.128h6.513a.093.093,0,0,0,.093-.092V39.152a.093.093,0,0,0-.093-.092ZM332.152,39H317.1a.093.093,0,0,0-.093.092v1.329a.1.1,0,0,0,.1.092h14.116a1.9,1.9,0,0,1,1.829,2.016,1.981,1.981,0,0,1-1.829,2.02H320.16A3.369,3.369,0,0,0,317,48.161v3.654a.089.089,0,0,0,.093.092h2.641a.093.093,0,0,0,.093-.092V48.158a2.1,2.1,0,0,1,1.959-2.18l10.358.079a3.533,3.533,0,1,0,0-7.056" transform="translate(246 232)" fill="#606161"/><path d="M692.265,39.543h18.057q.129,0,.129.1v1.236q0,.09-.129.082H695.03q-.126,0-.157.085v2.987a.956.956,0,0,0,.923.942h11.48A3.653,3.653,0,0,1,711,48.654a3.7,3.7,0,0,1-3.432,3.7H692.265c-.075,0-.111-.012-.111-.1s0-1.164,0-1.221.024-.089.111-.089h13.506a2.383,2.383,0,0,0,2.4-2.29,2.266,2.266,0,0,0-2.079-2.193H693.97a1.773,1.773,0,0,1-1.292-.613,1.865,1.865,0,0,1-.524-1.527V39.643c0-.066.037-.1.111-.1Z" transform="translate(-88.254 231.516)" fill="#606161" fill-rule="evenodd"/></g></g></svg>