<svg xmlns="http://www.w3.org/2000/svg" xmlns:xlink="http://www.w3.org/1999/xlink" width="60" height="60" viewBox="0 0 60 60"><defs><clipPath id="b"><rect width="60" height="60"/></clipPath></defs><g id="a" clip-path="url(#b)"><rect width="60" height="60" fill="#fff"/><path d="M15,3.833l2.927.507c-.887,5.613,1.978,6.3,6.748,7.185,3.67.683,7.825,1.555,7.825,8.21v1.6H29.543v-1.6c0-3.89-1.2-4.523-5.41-5.305-6.458-1.2-10.24-3.478-9.133-10.6Zm45,35a14.787,14.787,0,0,1-14.563,15,14.288,14.288,0,0,1-9.8-3.913,8.316,8.316,0,0,0-11.375.095,14.274,14.274,0,0,1-9.7,3.818A14.789,14.789,0,0,1,0,38.833a14.789,14.789,0,0,1,14.563-15l31.408.017A14.8,14.8,0,0,1,60,38.833Zm-37.5-2.5h-5v-5h-5v5h-5v5h5v5h5v-5h5Zm10,2.5h-5v2.5h5Zm10-5a2.5,2.5,0,1,0,2.5-2.5A2.5,2.5,0,0,0,42.5,33.833Zm0,5a2.5,2.5,0,1,0-2.5,2.5A2.5,2.5,0,0,0,42.5,38.833Zm5,5a2.5,2.5,0,1,0-2.5,2.5A2.5,2.5,0,0,0,47.5,43.833Zm5-5a2.5,2.5,0,1,0-2.5,2.5A2.5,2.5,0,0,0,52.5,38.833Z" transform="translate(0 1.333)" fill="#606161"/></g></svg>