<svg xmlns="http://www.w3.org/2000/svg" xmlns:xlink="http://www.w3.org/1999/xlink" width="60" height="60" viewBox="0 0 60 60"><defs><clipPath id="b"><rect width="60" height="60"/></clipPath></defs><g id="a" clip-path="url(#b)"><rect width="60" height="60" fill="#fff"/><g transform="translate(6 6)"><path d="M33.926,0H23.051V48H33.926A10.793,10.793,0,0,0,44.707,37.219V10.781A10.793,10.793,0,0,0,33.926,0Zm-.047,31.125a5.672,5.672,0,1,1,5.672-5.672A5.678,5.678,0,0,1,33.879,31.125Z" transform="translate(3.293)" fill="#606161"/><path d="M23.531,48H10.781A10.793,10.793,0,0,1,0,37.219V10.781A10.793,10.793,0,0,1,10.781,0h12.75ZM10.781,2.813a7.978,7.978,0,0,0-7.969,7.969V37.219a7.978,7.978,0,0,0,7.969,7.969h9.937V2.813Z" fill="#606161"/><path d="M11,18.727a5.672,5.672,0,1,1,5.672-5.672A5.678,5.678,0,0,1,11,18.727Z" transform="translate(0.762 1.055)" fill="#606161"/></g></g></svg>