<svg xmlns="http://www.w3.org/2000/svg" xmlns:xlink="http://www.w3.org/1999/xlink" width="60" height="60" viewBox="0 0 60 60"><defs><clipPath id="b"><rect width="60" height="60"/></clipPath></defs><g id="a" clip-path="url(#b)"><rect width="60" height="60" fill="#fff"/><g transform="translate(-453 -324.335)"><path d="M26.809,0V31.679l7.168,2.277V7.383c0-1.227.552-2.074,1.448-1.786,1.172.325,1.4,1.473,1.4,2.713V18.92c4.468,2.16,7.978,0,7.978-5.7.006-5.842-2.05-8.432-8.1-10.5A87.3,87.3,0,0,0,26.809,0Z" transform="translate(450.644 328.335)" fill="#606161"/><path d="M40.7,42.52,52.23,38.408c1.307-.466,1.51-1.135.448-1.479a7.819,7.819,0,0,0-4.3.221L40.7,39.85v-4.3l.442-.147a26.542,26.542,0,0,1,5.345-1.141,22.909,22.909,0,0,1,9.942,1.184c3.381,1.074,3.762,2.645,2.9,3.731a8.071,8.071,0,0,1-2.964,1.841L40.7,46.668Z" transform="translate(445.278 315.144)" fill="#606161"/><path d="M3.3,40.924C-.173,39.948-.75,37.917.846,36.738a17.183,17.183,0,0,1,3.952-1.9L15.078,31.16v4.161L7.713,37.972c-1.307.466-1.5,1.129-.448,1.479a7.812,7.812,0,0,0,4.3-.221l3.547-1.289V41.7l-.706.11a23.21,23.21,0,0,1-11.046-.89" transform="translate(461 316.298)" fill="#606161"/><path d="M64.891,51.442a1.393,1.393,0,1,1,.411.988A1.387,1.387,0,0,1,64.891,51.442Zm1.4,1.682a1.679,1.679,0,0,0,1.184-2.866,1.663,1.663,0,0,0-1.184-.5,1.682,1.682,0,0,0,0,3.363" transform="translate(436.041 309.112)" fill="#606161"/><path d="M67.351,51.484a.245.245,0,0,1-.086.215.454.454,0,0,1-.245.061H66.5v-.5h.552a.381.381,0,0,1,.2,0A.227.227,0,0,1,67.351,51.484Zm.368,1.227a.2.2,0,0,1-.055-.08.741.741,0,0,1,0-.141v-.239A.442.442,0,0,0,67.6,52a.417.417,0,0,0-.11-.092.424.424,0,0,0,.141-.135.515.515,0,0,0,.074-.288.454.454,0,0,0-.276-.454.773.773,0,0,0-.356-.061h-.89V52.81H66.5v-.767h.509a.558.558,0,0,1,.2,0,.215.215,0,0,1,.1.2v.442a.222.222,0,0,0,0,.068h.362v-.11" transform="translate(435.435 308.646)" fill="#606161"/></g><g transform="translate(-95.499 29.9)"><path d="M165.8,13.1h-8.368a3.27,3.27,0,0,0-3.618,3.446v5.926c0,1.206-.575,2.074-1.781,2.074h-7.891a.09.09,0,0,0-.09.09v1.191a.09.09,0,0,0,.09.09h8.785a3.272,3.272,0,0,0,3.622-3.442V16.546c0-1.21.571-2.078,1.777-2.078H165.8a.09.09,0,0,0,.09-.09V13.19a.09.09,0,0,0-.09-.09" transform="translate(-30.307 0)" fill="#606161"/><path d="M110.751,13.11H95.593a.09.09,0,0,0-.09.09v1.191a.094.094,0,0,0,.094.09h14.245c1.206,0,1.777.868,1.777,2.074s-.571,2.078-1.777,2.078H98.569a3.186,3.186,0,0,0-3.07,3.419v3.78a.086.086,0,0,0,.09.09h2.566a.09.09,0,0,0,.09-.09V22.049c0-1.206.7-2.052,1.695-2.052h10.8a3.269,3.269,0,0,0,3.618-3.442,3.272,3.272,0,0,0-3.618-3.446" transform="translate(0 -0.006)" fill="#606161"/><path d="M219.976,23.182H217.41a.094.094,0,0,1-.094-.09V14.468c0-1.326-.917-1.759-2.206-.962L199.648,23c-.609.376-.812.793-.665,1.1s.458.455,1.127.455h14.346a.1.1,0,0,1,.083.068v1.21a.094.094,0,0,0,.09.094h2.578a.094.094,0,0,0,.09-.094V24.643a.094.094,0,0,1,.09-.094h2.589a.094.094,0,0,0,.094-.09V23.272a.094.094,0,0,0-.094-.09m-5.415-.1a.094.094,0,0,1-.09.094H202.448c-.1,0-.147-.026-.162-.06s0-.1.09-.147L214.34,15.6c.083-.053.222-.041.222.12Z" transform="translate(-64.572 -0.004)" fill="#606161"/></g></g></svg>