<svg xmlns="http://www.w3.org/2000/svg" width="24" height="23.077" viewBox="0 0 24 23.077"><g transform="translate(-5189 -3388.507)"><path d="M5189,3397.487c0,.519.729,1.08,1.224,1.582l1.45,1.41c.477.482.913.931,1.393,1.41l.739.692a6.315,6.315,0,0,0,.725.7l-1.264,7.5a.831.831,0,0,0,.9.8,1.924,1.924,0,0,0,.894-.372l1.7-.887c.173-.089.247-.149.4-.231s.287-.145.458-.229c.43-.216,3.232-1.768,3.388-1.768.119,0,1.445.734,1.7.863l3.384,1.8a7.254,7.254,0,0,0,1.759.828.843.843,0,0,0,.9-.744c0-.378-.545-3.356-.617-3.793l-.647-3.762a5.712,5.712,0,0,0,.7-.678l.738-.691c.477-.485.918-.927,1.4-1.41l1.421-1.383a9.625,9.625,0,0,0,1.2-1.285.877.877,0,0,0-.4-1.1c-.221-.119-3.022-.491-3.406-.547l-3.4-.5c-.945-.138-.569.188-1.74-2.179l-1.738-3.563c-.157-.318-.281-.569-.437-.889a.865.865,0,0,0-1.565-.1c-.561,1-1.606,3.3-2.175,4.45-.3.613-.577,1.16-.878,1.773-.247.507-.139.414-.768.5-.382.052-.752.109-1.152.165-.754.108-1.513.223-2.3.34-.41.062-3.2.434-3.432.522A.984.984,0,0,0,5189,3397.487Z" fill="#fbbb4a" fill-rule="evenodd"/></g></svg>