<svg xmlns="http://www.w3.org/2000/svg" xmlns:xlink="http://www.w3.org/1999/xlink" width="60" height="60" viewBox="0 0 60 60"><defs><clipPath id="b"><rect width="60" height="60"/></clipPath></defs><g id="a" clip-path="url(#b)"><rect width="60" height="60" fill="#fff"/><path d="M23.959,0A24.021,24.021,0,0,0,0,22.075l12.886,5.318a6.766,6.766,0,0,1,3.83-1.181q.192,0,.379.01l5.731-8.293v-.116a9.066,9.066,0,1,1,9.066,9.052c-.069,0-.137,0-.206,0l-8.174,5.82c.005.108.009.216.009.322a6.806,6.806,0,0,1-13.477,1.34L.827,30.54A24.035,24.035,0,1,0,23.959,0ZM15.066,36.416,12.113,35.2a5.1,5.1,0,1,0,2.794-6.97l3.052,1.259a3.754,3.754,0,1,1-2.892,6.929Zm22.867-18.6a6.042,6.042,0,1,0-6.041,6.03A6.044,6.044,0,0,0,37.933,17.814ZM27.364,17.8a4.538,4.538,0,1,1,4.537,4.53,4.534,4.534,0,0,1-4.537-4.53Z" transform="translate(6 6)" fill="#606161"/></g></svg>