<svg xmlns="http://www.w3.org/2000/svg" xmlns:xlink="http://www.w3.org/1999/xlink" width="60" height="60" viewBox="0 0 60 60"><defs><clipPath id="a"><rect width="48" height="48" fill="#fff"/></clipPath><clipPath id="c"><rect width="60" height="60"/></clipPath></defs><g id="b" clip-path="url(#c)"><rect width="60" height="60" fill="#fff"/><g transform="translate(6 6)" clip-path="url(#a)"><path d="M21.607,47.9A23.959,23.959,0,0,1,10.95,44.123c-2.695-1.757-3.3-2.479-3.3-3.921,0-2.9,3.185-7.967,8.636-13.749,3.1-3.283,7.407-7.132,7.873-7.028.906.2,8.153,7.268,10.866,10.593,4.29,5.259,6.262,9.565,5.26,11.485-.762,1.459-5.488,4.312-8.96,5.407A26.347,26.347,0,0,1,21.607,47.9ZM4.008,37.192A24.878,24.878,0,0,1,.091,25.49c-.18-1.614-.116-2.538.41-5.851A23.955,23.955,0,0,1,6.336,7.791C7.54,6.539,7.647,6.509,9.115,7c1.783.6,3.686,1.914,6.638,4.582l1.723,1.557L16.535,14.3C12.169,19.658,7.56,27.257,5.823,31.958,4.878,34.514,4.5,37.08,4.9,38.148,5.178,38.869,4.926,38.6,4.008,37.192Zm39.305.584a11.642,11.642,0,0,0-.714-5.061c-1.42-4.33-6.167-12.384-10.525-17.86L30.7,13.131l1.484-1.362A31.347,31.347,0,0,1,36.921,8.02a9.121,9.121,0,0,1,3.487-1.346c.434,0,1.962,1.584,3.195,3.314a25.115,25.115,0,0,1,4.027,9.3,30.952,30.952,0,0,1,.074,9.036,28.472,28.472,0,0,1-1.8,5.679,30.415,30.415,0,0,1-2.459,4.212c-.3.383-.3.382-.132-.444ZM22,5.857a29.87,29.87,0,0,0-6.827-2.411A12.511,12.511,0,0,0,12.9,3.318c-1.414.071-1.351,0,.918-1.074A23.333,23.333,0,0,1,19.41.382,28.848,28.848,0,0,1,28.691.37a25.91,25.91,0,0,1,7.254,2.7l.5.31-1.155-.058C33,3.2,29.652,4.13,26.06,5.878a19.138,19.138,0,0,1-2.095.935C23.9,6.8,23.013,6.37,22,5.857Z" transform="translate(0 0)" fill="#606161"/></g></g></svg>